<svg width="82" height="79" fill="none" xmlns="http://www.w3.org/2000/svg"><path d="M78.5 31.625h-3.27a34.375 34.375 0 00-68.46 0H3.5A3.125 3.125 0 00.375 34.75 40.762 40.762 0 0022.25 70.797v1.453a6.25 6.25 0 006.25 6.25h25a6.25 6.25 0 006.25-6.25v-1.453A40.763 40.763 0 0081.625 34.75a3.125 3.125 0 00-3.125-3.125zm-9.555 0H48.86a28.063 28.063 0 0116.122-11.55 27.91 27.91 0 013.964 11.55zm-10.18-18.66a28.936 28.936 0 012.06 1.855 34.344 34.344 0 00-19.2 16.797H30.102a28.226 28.226 0 0126.523-18.742c.715 0 1.43.035 2.14.09zM41 6.625c2.508.002 5.004.34 7.422 1.004A34.515 34.515 0 0023.55 31.625H13.055A28.156 28.156 0 0141 6.625zM55.32 66a3.125 3.125 0 00-1.82 2.852v3.398h-25v-3.398A3.125 3.125 0 0026.68 66 34.489 34.489 0 016.758 37.875H75.23A34.488 34.488 0 0155.32 66z" fill="#DEAD6F" fill-opacity=".6"/></svg>