<svg width="82" height="79" viewBox="0 0 94 82" fill="none" xmlns="http://www.w3.org/2000/svg"><path d="M68.75 20.562a4.687 4.687 0 11-9.374 0 4.687 4.687 0 019.374 0zm-19.875 24.16a3.125 3.125 0 00-4.402.391l-15.625 18.75a3.125 3.125 0 104.804 4l15.625-18.75a3.125 3.125 0 00-.402-4.39zM93.75 25.25a3.125 3.125 0 01-1.39 2.602l-7.985 5.32v7.703A40.668 40.668 0 0143.75 81.5H3.125a3.125 3.125 0 01-2.441-5.078L37.5 30.402v-6.715a23.437 23.437 0 0145.785-7.085l9.074 6.046a3.126 3.126 0 011.391 2.602zm-8.758 0l-6.125-4.086a3.125 3.125 0 01-1.293-1.813 17.187 17.187 0 00-33.824 4.336V31.5c0 .71-.24 1.398-.684 1.953L9.625 75.25H43.75a34.414 34.414 0 0034.375-34.375V31.5a3.126 3.126 0 011.39-2.602l5.477-3.648z" fill="#DEAD6F" fill-opacity=".6"/></svg>