<svg width="89" height="79" fill="none" xmlns="http://www.w3.org/2000/svg"><path d="M88.136 39.828L81.722 5.453a6.249 6.249 0 00-7.66-4.914l-.12.035-20.516 6.05H35.573L15.058.595l-.12-.036a6.25 6.25 0 00-7.66 4.914L.862 39.828a6.16 6.16 0 003.563 6.844 6.352 6.352 0 002.62.578 6.047 6.047 0 003.079-.844v16.469A15.625 15.625 0 0025.75 78.5h37.5a15.625 15.625 0 0015.625-15.625V46.41c.93.55 1.992.842 3.074.844a6.372 6.372 0 002.625-.575 6.16 6.16 0 003.563-6.851zM7 41l6.418-34.375 16.433 4.832L7 41zm56.25 31.25H47.625v-4.957l5.336-5.332a3.127 3.127 0 00-4.422-4.422l-4.04 4.043-4.038-4.043a3.127 3.127 0 00-4.422 4.422l5.336 5.332v4.957H25.75a9.375 9.375 0 01-9.375-9.375V39.09l20.281-26.215H52.34L72.625 39.09v23.785a9.375 9.375 0 01-9.375 9.375zM82 41L59.148 11.457l16.434-4.832L82 41zm-46.875 4.687a4.688 4.688 0 11-9.376 0 4.688 4.688 0 019.376 0zm28.125 0a4.687 4.687 0 11-9.374 0 4.687 4.687 0 019.374 0z" fill="#DEAD6F" fill-opacity=".6"/></svg>