<svg width="82" height="80" fill="none" xmlns="http://www.w3.org/2000/svg"><path d="M59.393 18.062c0 .808-.249 1.598-.715 2.27a4.211 4.211 0 01-1.903 1.505 4.39 4.39 0 01-2.45.232 4.292 4.292 0 01-2.172-1.118 4.042 4.042 0 01-1.16-2.092 3.947 3.947 0 01.24-2.361 4.123 4.123 0 011.563-1.834 4.356 4.356 0 012.356-.689c1.125 0 2.203.43 2.999 1.197a4.012 4.012 0 011.242 2.89zm14.09 27.582c-7.337 8.98-19.03 13.872-34.779 14.564l-7.775 17.51a2.751 2.751 0 01-1.046 1.208 2.905 2.905 0 01-1.565.45h-.18a2.89 2.89 0 01-1.595-.596 2.72 2.72 0 01-.947-1.373l-5.233-17.656-18.314-5.053a2.837 2.837 0 01-1.43-.906 2.647 2.647 0 01-.216-3.138c.304-.48.756-.858 1.293-1.08l18.175-7.492c.707-15.177 5.8-26.445 15.123-33.51C50.264-3.007 72.069.796 76.285 1.675a5.72 5.72 0 012.805 1.473 5.388 5.388 0 011.528 2.702c.933 4.059 4.884 25.09-7.135 39.813v-.02zM57.11 50.98c-3.269-1.2-6.115-3.271-8.206-5.972a17.364 17.364 0 01-3.605-9.28 18.838 18.838 0 01-9.63-3.472c-2.802-2.015-4.951-4.756-6.196-7.905-2.473 5.4-3.802 11.956-3.993 19.62a2.657 2.657 0 01-.486 1.462c-.304.432-.73.771-1.228.977l-12.514 5.159 12.178 3.36c.462.128.882.366 1.221.693.34.327.587.732.72 1.177l3.477 11.734 5.365-12.057a2.75 2.75 0 011.018-1.187 2.9 2.9 0 011.523-.465c7.944-.18 14.747-1.468 20.356-3.844zM75.109 7.005c-3.782-.79-23.325-4.219-36.603 5.85a28.113 28.113 0 00-4.534 4.314c-.135 1.78.134 3.568.79 5.237a12.227 12.227 0 003.006 4.428 12.804 12.804 0 004.663 2.795c1.747.593 3.608.812 5.451.64.415-.038.833.013 1.225.149.391.136.747.353 1.042.637.294.284.52.626.66 1.004.142.377.194.78.155 1.18a11.86 11.86 0 00.665 5.254 12.199 12.199 0 002.903 4.494 12.776 12.776 0 004.598 2.896c1.733.631 3.589.89 5.437.758a27.985 27.985 0 004.47-4.362c10.45-12.793 6.892-31.627 6.072-35.274z" fill="#DEAD6F" fill-opacity=".6"/></svg>