<svg width="83" height="79" fill="none" xmlns="http://www.w3.org/2000/svg"><path d="M29 42.688a4.688 4.688 0 11-9.375 0 4.688 4.688 0 019.375 0zM58.688 38a4.688 4.688 0 100 9.376 4.688 4.688 0 000-9.376zM82.124 6.75v34.375c0 20.676-18.223 37.5-40.625 37.5S.875 61.801.875 41.125V6.75a6.25 6.25 0 0110.668-4.418c.055.055.102.106.148.16l6.762 7.774a43.445 43.445 0 0146.133 0l6.723-7.774c.047-.054.093-.105.148-.16A6.25 6.25 0 0182.125 6.75zm-6.25 0l-8.422 9.688a3.125 3.125 0 01-4.223.468 34.71 34.71 0 00-6.105-3.613v9.082a3.125 3.125 0 11-6.25 0V11.066a38.073 38.073 0 00-6.25-1.062v12.371a3.125 3.125 0 11-6.25 0V10.004c-2.11.18-4.2.535-6.25 1.062v11.309a3.125 3.125 0 11-6.25 0v-9.082a34.71 34.71 0 00-6.105 3.613 3.125 3.125 0 01-4.223-.457L7.125 6.75v34.375c0 16.273 13.754 29.688 31.25 31.121v-7.953l-5.336-5.336a3.126 3.126 0 014.422-4.418l4.039 4.04 4.04-4.04a3.125 3.125 0 114.42 4.418l-5.335 5.336v7.953c17.496-1.441 31.25-14.844 31.25-31.121V6.75z" fill="#DEAD6F" fill-opacity=".6"/></svg>