<svg width="89" height="79" viewBox="0 0 89 79" fill="none" xmlns="http://www.w3.org/2000/svg">
<path d="M88.1365 39.8279L81.7224 5.45294C81.5657 4.61503 81.2392 3.81804 80.763 3.11098C80.2869 2.40392 79.6711 1.80174 78.9537 1.34146C78.2362 0.881186 77.4321 0.572546 76.5909 0.434522C75.7497 0.296499 74.8892 0.332011 74.0622 0.538874L73.9411 0.57403L53.4255 6.62481H35.574L15.0583 0.593561L14.9372 0.558405C14.1103 0.351542 13.2498 0.31603 12.4086 0.454053C11.5674 0.592077 10.7633 0.900717 10.0458 1.36099C9.32833 1.82127 8.71258 2.42346 8.23643 3.13052C7.76029 3.83757 7.43381 4.63456 7.27708 5.47247L0.86302 39.8279C0.588735 41.2038 0.792333 42.6322 1.44014 43.8766C2.08794 45.1211 3.14114 46.1071 4.42552 46.6717C5.24806 47.0489 6.14171 47.246 7.04661 47.2498C8.1297 47.2493 9.19278 46.9579 10.1247 46.4061V62.8748C10.1247 67.0188 11.7709 70.9931 14.7012 73.9234C17.6315 76.8536 21.6057 78.4998 25.7497 78.4998H63.2497C67.3937 78.4998 71.368 76.8536 74.2983 73.9234C77.2285 70.9931 78.8747 67.0188 78.8747 62.8748V46.41C79.8057 46.9608 80.8672 47.2521 81.949 47.2537C82.8548 47.2511 83.7497 47.0553 84.574 46.6795C85.8599 46.1147 86.9142 45.1274 87.5621 43.8813C88.21 42.6351 88.4127 41.205 88.1365 39.8279ZM6.99974 40.9998L13.4177 6.62481L29.8513 11.4568L6.99974 40.9998ZM63.2497 72.2498H47.6247V67.2928L52.9607 61.9608C53.5471 61.3744 53.8765 60.5791 53.8765 59.7498C53.8765 58.9206 53.5471 58.1253 52.9607 57.5389C52.3743 56.9525 51.579 56.6231 50.7497 56.6231C49.9205 56.6231 49.1252 56.9525 48.5388 57.5389L44.4997 61.5819L40.4607 57.5389C39.8743 56.9525 39.079 56.6231 38.2497 56.6231C37.4205 56.6231 36.6252 56.9525 36.0388 57.5389C35.4524 58.1253 35.123 58.9206 35.123 59.7498C35.123 60.5791 35.4524 61.3744 36.0388 61.9608L41.3747 67.2928V72.2498H25.7497C23.2633 72.2498 20.8788 71.2621 19.1206 69.5039C17.3625 67.7458 16.3747 65.3612 16.3747 62.8748V39.0897L36.656 12.8748H52.3396L72.6247 39.0897V62.8748C72.6247 65.3612 71.637 67.7458 69.8789 69.5039C68.1207 71.2621 65.7361 72.2498 63.2497 72.2498ZM81.9997 40.9998L59.1482 11.4568L75.5818 6.62481L81.9997 40.9998ZM35.1247 45.6873C35.1247 46.6144 34.8498 47.5207 34.3348 48.2915C33.8197 49.0624 33.0876 49.6632 32.2311 50.018C31.3745 50.3728 30.432 50.4656 29.5228 50.2847C28.6135 50.1039 27.7782 49.6574 27.1227 49.0019C26.4671 48.3463 26.0207 47.5111 25.8398 46.6018C25.6589 45.6925 25.7518 44.75 26.1066 43.8935C26.4613 43.037 27.0621 42.3049 27.833 41.7898C28.6039 41.2747 29.5101 40.9998 30.4372 40.9998C31.6804 40.9998 32.8727 41.4937 33.7518 42.3728C34.6309 43.2518 35.1247 44.4441 35.1247 45.6873ZM63.2497 45.6873C63.2497 46.6144 62.9748 47.5207 62.4597 48.2915C61.9447 49.0624 61.2126 49.6632 60.3561 50.018C59.4995 50.3728 58.557 50.4656 57.6478 50.2847C56.7385 50.1039 55.9032 49.6574 55.2477 49.0019C54.5921 48.3463 54.1457 47.5111 53.9648 46.6018C53.7839 45.6925 53.8768 44.75 54.2316 43.8935C54.5863 43.037 55.1871 42.3049 55.958 41.7898C56.7289 41.2747 57.6351 40.9998 58.5622 40.9998C59.8054 40.9998 60.9977 41.4937 61.8768 42.3728C62.7559 43.2518 63.2497 44.4441 63.2497 45.6873Z" fill="#DEAD6F" fill-opacity="0.6"/>
</svg>
