<svg width="28" height="28" viewBox="0 0 28 28" fill="none" xmlns="http://www.w3.org/2000/svg">
<path d="M10.25 0.875C6.63594 0.875 3.6875 3.82344 3.6875 7.4375C3.6875 9.69687 4.84062 11.7031 6.58812 12.8872C3.24406 14.3216 0.875 17.6403 0.875 21.5H2.75C2.75 17.3469 6.09688 14 10.25 14C11.5391 14 12.74 14.3375 13.7947 14.9084C12.7151 16.2434 12.1258 17.9081 12.125 19.625C12.125 23.7556 15.4944 27.125 19.625 27.125C23.7556 27.125 27.125 23.7556 27.125 19.625C27.125 15.4944 23.7556 12.125 19.625 12.125C18.045 12.1264 16.5062 12.6289 15.23 13.5603C14.8088 13.3017 14.3681 13.0763 13.9119 12.8863C14.8038 12.2842 15.5345 11.4727 16.0402 10.5228C16.5458 9.57292 16.811 8.51359 16.8125 7.4375C16.8125 3.82344 13.8641 0.875 10.25 0.875ZM10.25 2.75C12.8497 2.75 14.9375 4.83781 14.9375 7.4375C14.9375 10.0372 12.8497 12.125 10.25 12.125C7.65031 12.125 5.5625 10.0372 5.5625 7.4375C5.5625 4.83781 7.65031 2.75 10.25 2.75ZM19.625 14C22.7412 14 25.25 16.5087 25.25 19.625C25.25 22.7412 22.7412 25.25 19.625 25.25C16.5087 25.25 14 22.7412 14 19.625C14 16.5087 16.5087 14 19.625 14ZM22.7009 17.0759L19.625 20.1528L17.4866 18.0134L16.1384 19.3616L18.9509 22.1741L19.625 22.8181L20.2991 22.1741L24.0491 18.4241L22.7009 17.0759Z" fill="#DEAD6F"/>
</svg>
