<svg width="28" height="28" fill="none" xmlns="http://www.w3.org/2000/svg"><path d="M10.25.875c-3.614 0-6.563 2.948-6.563 6.563a6.586 6.586 0 002.901 5.45C3.244 14.321.875 17.64.875 21.5H2.75c0-4.153 3.347-7.5 7.5-7.5 1.29 0 2.49.338 3.545.908a7.506 7.506 0 00-1.67 4.717c0 4.13 3.37 7.5 7.5 7.5s7.5-3.37 7.5-7.5-3.37-7.5-7.5-7.5a7.466 7.466 0 00-4.395 1.435 9.5 9.5 0 00-1.318-.674 6.585 6.585 0 002.9-5.448c0-3.615-2.948-6.563-6.562-6.563zm0 1.875c2.6 0 4.688 2.088 4.688 4.688 0 2.6-2.088 4.687-4.688 4.687a4.674 4.674 0 01-4.688-4.688c0-2.6 2.088-4.687 4.688-4.687zM19.625 14a5.613 5.613 0 015.625 5.625 5.613 5.613 0 01-5.625 5.625A5.613 5.613 0 0114 19.625 5.613 5.613 0 0119.625 14zm3.076 3.076l-3.076 3.077-2.138-2.14-1.349 1.349 2.813 2.812.674.644.674-.644 3.75-3.75-1.348-1.348z" fill="#DEAD6F"/></svg>