<svg width="24" height="26" fill="none" xmlns="http://www.w3.org/2000/svg"><path d="M12 .813c-.586 0-1.168.196-1.67.556L8.778 2.453l-1.789.235H6.96l-.029.029a3.182 3.182 0 00-2.403 2.402l-.028.03v.029l-.234 1.816-1.084 1.407-.03.029v.029c-.655 1.047-.684 2.399.03 3.398l1.113 1.553.293 1.612-3.018 4.599-.966 1.436h4.482l1.084 2.519.674 1.611.966-1.465 2.96-4.453c.794.326 1.691.356 2.46 0l2.96 4.453.966 1.465.674-1.611 1.084-2.52h4.482l-.966-1.435-2.93-4.453.234-1.757 1.084-1.553.03-.029V11.8c.655-1.047.684-2.37-.03-3.37l-1.084-1.553-.351-1.758h.029c-.004-.022-.025-.037-.03-.059-.168-1.226-1.138-2.222-2.372-2.372h-.03l-1.758-.235L13.67 1.37A2.882 2.882 0 0012 .813zm0 1.904c.216 0 .428.065.586.176l1.67 1.2.205.147.234.03 2.052.293h.028a.83.83 0 01.762.762v.058l.381 2.08.029.205.147.176 1.2 1.67c.225.31.254.838-.028 1.289l-1.318 1.845-.03.235-.293 2.051v.028a.932.932 0 01-.146.41l-.06.03v.029a.825.825 0 01-.555.293h-.06l-2.138.382-.234.028-.176.147-1.67 1.201c-.311.224-.868.253-1.318-.029l-1.524-1.172-.176-.146-.263-.03-2.052-.293h-.028a.83.83 0 01-.645-.41.928.928 0 01-.117-.352v-.058l-.38-2.138-.03-.235-.147-.176-1.2-1.67c-.225-.31-.254-.868.028-1.318l1.172-1.523.147-.176.029-.264.264-1.963c.004-.014.025-.014.029-.029a1.307 1.307 0 01.938-.938c.015-.003.015-.025.029-.029l1.963-.264.234-.028.205-.147 1.67-1.201c.158-.11.37-.176.586-.176zm6.474 14.267l1.437 2.198h-2.258l-.234.586-.644 1.493-1.992-3.047.438-.321 1.847-.323v.03c.022-.004.036-.026.058-.03.494-.07.96-.273 1.348-.586zm-12.948.03c.407.37.918.605 1.464.674h.03l1.787.234.41.322-1.993 3.017-.644-1.493-.234-.586H4.09l1.436-2.169z" fill="#DEAD6F"/></svg>