<svg width="24" height="20" fill="none" xmlns="http://www.w3.org/2000/svg"><path d="M1.688.563A.94.94 0 00.75 1.5a.94.94 0 00.938.938h2.08l2.46 9.843a1.86 1.86 0 001.817 1.406h10.752c.845 0 1.564-.56 1.787-1.377l2.432-8.935H7.313L7.78 5.25h12.803l-1.787 6.563H8.045L5.584 1.969A1.859 1.859 0 003.769.563H1.687zm15.937 13.124a2.827 2.827 0 00-2.813 2.813 2.827 2.827 0 002.813 2.813 2.827 2.827 0 002.813-2.813 2.827 2.827 0 00-2.813-2.813zm-8.438 0A2.827 2.827 0 006.376 16.5a2.827 2.827 0 002.813 2.813A2.827 2.827 0 0012 16.5a2.827 2.827 0 00-2.813-2.813zm0 1.876c.528 0 .938.41.938.937 0 .528-.41.938-.938.938a.925.925 0 01-.937-.938c0-.528.41-.938.938-.938zm8.438 0c.528 0 .938.41.938.937a.926.926 0 01-.938.938.925.925 0 01-.938-.938c0-.528.411-.938.938-.938z" fill="#DEAD6F"/></svg>