<svg width="12" height="11" fill="none" xmlns="http://www.w3.org/2000/svg"><path d="M7.463 10.731l4.286-4.583a.921.921 0 00.186-.297.972.972 0 00-.186-1L7.463.269A.856.856 0 007.185.07a.809.809 0 00-.656 0 .856.856 0 00-.278.198A.95.95 0 006 .917c0 .243.09.476.251.648l2.823 3.018H.857a.83.83 0 00-.606.269A.95.95 0 000 5.5c0 .243.09.476.251.648a.83.83 0 00.606.269h8.217L6.25 9.434a.92.92 0 00-.186.297.97.97 0 00.186 1c.08.084.174.152.278.198a.807.807 0 00.656 0 .855.855 0 00.278-.199z" fill="#41403E"/></svg>