<svg width="206" height="57" fill="none" xmlns="http://www.w3.org/2000/svg"><path d="M62.709 7.758c0-.308.114-.57.342-.786a1.08 1.08 0 01.786-.342c.285 0 .535.108.752.325.216.216.33.467.342.752.068 2.278.17 4.392.307 6.34.137 1.937.314 3.703.53 5.298.74 5.48 1.789 8.699 3.145 9.655.193.149.347.206.461.171.125-.034.285-.125.479-.273.33-.262.655-.621.974-1.077.33-.455.666-1.002 1.008-1.64.342-.638.66-1.356.957-2.154.308-.809.604-1.686.889-2.632 1.242-4.215 1.93-8.83 2.068-13.842.01-.353.125-.615.341-.786a1.225 1.225 0 011.504 0c.24.17.365.427.376.769.33 7.884 1.362 13.888 3.094 18.012.5 1.185 1.002 2.097 1.503 2.735.525.672.94 1.054 1.248 1.145.342.102.615.148.82.136.456-.034.934-.421 1.436-1.162.615-.888 1.105-1.988 1.47-3.298.364-1.31.62-2.746.769-4.307.16-1.572.239-3.19.239-4.853 0-1.322-.04-2.643-.12-3.965a75.97 75.97 0 00-.325-3.845v-.137c0-.342.114-.604.342-.786.24-.182.502-.274.786-.274.251 0 .485.08.701.24.217.148.342.387.376.718a82.69 82.69 0 01.325 3.947c.09 1.345.136 2.683.136 4.016 0 1.835-.096 3.618-.29 5.35-.182 1.72-.484 3.31-.906 4.768-.41 1.447-.968 2.677-1.675 3.691a6.72 6.72 0 01-1.401 1.453c-.57.455-1.242.683-2.017.683-.41 0-.82-.074-1.23-.222-.889-.319-1.663-.906-2.324-1.76a12.91 12.91 0 01-1.043-1.658 27.993 27.993 0 01-1.128-2.375c-.774-1.846-1.435-4.375-1.982-7.588-.798 3.76-1.8 6.784-3.008 9.074-1.435 2.746-2.91 4.12-4.426 4.12-.547 0-1.105-.189-1.675-.565-.934-.65-1.737-1.834-2.41-3.555-.683-1.765-1.281-4.3-1.794-7.605-.501-3.315-.752-7.286-.752-11.911zm33.572 23.909c-.262 0-.513-.114-.752-.342-.24-.217-.347-.462-.325-.735.41-5.503 1.293-10.453 2.65-14.851 1.355-4.375 2.973-7.275 4.853-8.699.774-.581 1.526-.872 2.256-.872 2.073 0 4.016 2.29 5.827 6.87 1.584 4.022 2.962 9.297 4.136 15.826l.273 1.504c.012.068.018.13.018.188 0 .341-.126.604-.376.786-.24.194-.502.29-.787.29-.239 0-.461-.074-.666-.222-.205-.137-.336-.359-.393-.666l-.257-1.487c-.262-1.47-.535-2.871-.82-4.204a96.494 96.494 0 00-.889-3.828H98.776c-.672 3.326-1.122 6.471-1.35 9.433a.977.977 0 01-.376.718c-.228.194-.484.29-.769.29zm2.99-12.664h11.177c-1.276-4.546-2.597-7.68-3.964-9.4-.319-.41-.638-.706-.957-.888-.297-.16-.513-.234-.65-.222-.729.09-1.447.666-2.153 1.726-1.367 2.05-2.518 4.979-3.452 8.784zm46.424-9.45c.228.216.342.478.342.785 0 .445-.216.787-.649 1.026-.422.228-.821.17-1.197-.171-.968-.889-2.358-1.578-4.17-2.068-1.8-.49-3.708-.735-5.725-.735a22.63 22.63 0 00-3.059.205c-3.691.752-6.323 2.262-7.895 4.529a7.863 7.863 0 00-1.111 2.29 8.196 8.196 0 00-.342 2.324c0 1.413.313 2.786.94 4.119a13.663 13.663 0 002.341 3.486c1.094 1.174 2.473 2.148 4.136 2.923 1.663.774 3.555 1.162 5.674 1.162a17.06 17.06 0 003.503-.376c.9-.228 1.8-.581 2.7-1.06a12.142 12.142 0 002.444-1.675c.73-.638 1.259-1.31 1.59-2.016a4.511 4.511 0 00.444-1.948c0-.673-.131-1.18-.393-1.522-.251-.353-.615-.615-1.094-.786a15.42 15.42 0 00-1.709-.495c-.82-.194-1.874-.29-3.161-.29a34.7 34.7 0 00-2.085.068c-.752.034-1.459.085-2.119.153-.661.057-1.174.114-1.539.171l-.717.103a.963.963 0 01-.188.017c-.331 0-.593-.12-.786-.359a1.337 1.337 0 01-.274-.803c0-.24.068-.462.205-.667.148-.216.382-.347.701-.393l.718-.102c.387-.057.917-.12 1.589-.188a51.16 51.16 0 012.17-.171 37.62 37.62 0 012.205-.069c1.481 0 2.837.137 4.067.41 1.242.274 2.262.707 3.059 1.3 1.049.786 1.573 2.016 1.573 3.69 0 2.36-1.259 4.478-3.777 6.358a14.384 14.384 0 01-5.127 2.427 19.833 19.833 0 01-4.016.427c-1.208 0-2.387-.125-3.538-.376-3.179-.695-5.805-2.159-7.878-4.392a15.698 15.698 0 01-2.786-4.187 11.759 11.759 0 01-1.094-4.939c0-.99.148-1.982.445-2.973.296-.992.769-1.96 1.418-2.906 1.914-2.768 5.013-4.585 9.297-5.451h.034c.012-.012.023-.017.034-.017a25.336 25.336 0 013.367-.223c2.336 0 4.535.302 6.597.906 2.062.593 3.674 1.419 4.836 2.478zm32.701 0c.227.216.341.478.341.785 0 .445-.216.787-.649 1.026-.422.228-.82.17-1.196-.171-.969-.889-2.359-1.578-4.17-2.068-1.8-.49-3.709-.735-5.725-.735-1.037 0-2.057.069-3.059.205-3.692.752-6.324 2.262-7.896 4.529a7.863 7.863 0 00-1.111 2.29 8.196 8.196 0 00-.342 2.324c0 1.413.314 2.786.94 4.119a13.64 13.64 0 002.342 3.486c1.093 1.174 2.472 2.148 4.135 2.923 1.664.774 3.555 1.162 5.674 1.162 1.14 0 2.307-.126 3.504-.376.9-.228 1.8-.581 2.7-1.06a12.2 12.2 0 002.444-1.675c.729-.638 1.259-1.31 1.589-2.016a4.511 4.511 0 00.444-1.948c0-.673-.131-1.18-.393-1.522-.25-.353-.615-.615-1.093-.786a15.485 15.485 0 00-1.709-.495c-.821-.194-1.875-.29-3.162-.29a34.7 34.7 0 00-2.085.068c-.752.034-1.458.085-2.119.153a23.83 23.83 0 00-1.538.171l-.718.103a.963.963 0 01-.188.017c-.33 0-.592-.12-.786-.359a1.344 1.344 0 01-.274-.803c0-.24.069-.462.206-.667.148-.216.381-.347.7-.393l.718-.102c.387-.057.917-.12 1.589-.188a51.214 51.214 0 012.171-.171 37.587 37.587 0 012.204-.069c1.481 0 2.837.137 4.068.41 1.242.274 2.261.707 3.059 1.3 1.048.786 1.572 2.016 1.572 3.69 0 2.36-1.259 4.478-3.777 6.358a14.368 14.368 0 01-5.127 2.427 19.825 19.825 0 01-4.016.427c-1.207 0-2.387-.125-3.537-.376-3.179-.695-5.805-2.159-7.879-4.392a15.695 15.695 0 01-2.785-4.187 11.744 11.744 0 01-1.094-4.939c0-.99.148-1.982.444-2.973.296-.992.769-1.96 1.419-2.906 1.914-2.768 5.013-4.585 9.296-5.451h.035c.011-.012.022-.017.034-.017a25.314 25.314 0 013.367-.223c2.335 0 4.534.302 6.596.906 2.062.593 3.674 1.419 4.837 2.478zm12.568 22.797a1.07 1.07 0 01-.786-.325 1.073 1.073 0 01-.325-.786c0-.16.034-.313.103-.461l2.495-5.435c.832-1.823 1.663-3.64 2.495-5.451l-9.621-11.69a1.088 1.088 0 01-.257-.683c0-.297.12-.559.359-.787.239-.227.507-.341.803-.341.319 0 .587.136.803.41l8.938 10.835a977.737 977.737 0 012.649-5.794c.889-1.925 1.772-3.85 2.649-5.776.08-.171.211-.32.393-.444.183-.137.388-.205.616-.205.307 0 .569.108.786.324.216.217.324.479.324.786 0 .16-.034.314-.102.462L191.972 31.7c-.079.17-.21.319-.393.444a.998.998 0 01-.615.205z" fill="#41403E"/><path d="M66.64 39.5c1.34 0 2.39.32 3.15.96.76.64 1.14 1.52 1.14 2.64s-.38 2-1.14 2.64c-.76.63-1.81.945-3.15.945h-2.82V50h-1.11V39.5h3.93zm-.03 6.21c1.04 0 1.835-.225 2.385-.675.55-.46.825-1.105.825-1.935 0-.85-.275-1.5-.825-1.95-.55-.46-1.345-.69-2.385-.69h-2.79v5.25h2.79zm14.221.675h-6.6c.06.82.375 1.485.945 1.995.57.5 1.29.75 2.16.75.49 0 .94-.085 1.35-.255.41-.18.765-.44 1.065-.78l.6.69c-.35.42-.79.74-1.32.96-.52.22-1.095.33-1.725.33-.81 0-1.53-.17-2.16-.51a3.798 3.798 0 01-1.455-1.44c-.35-.61-.525-1.3-.525-2.07 0-.77.165-1.46.495-2.07.34-.61.8-1.085 1.38-1.425.59-.34 1.25-.51 1.98-.51s1.385.17 1.965.51c.58.34 1.035.815 1.365 1.425.33.6.495 1.29.495 2.07l-.015.33zm-3.81-3.42c-.76 0-1.4.245-1.92.735-.51.48-.8 1.11-.87 1.89h5.595c-.07-.78-.365-1.41-.885-1.89-.51-.49-1.15-.735-1.92-.735zM88.07 49.52c-.2.18-.45.32-.75.42a3.07 3.07 0 01-.915.135c-.74 0-1.31-.2-1.71-.6-.4-.4-.6-.965-.6-1.695v-4.77h-1.41v-.9h1.41v-1.725h1.065v1.725h2.4v.9h-2.4v4.71c0 .47.115.83.345 1.08.24.24.58.36 1.02.36.22 0 .43-.035.63-.105.21-.07.39-.17.54-.3l.375.765zm10.784.57a6.81 6.81 0 01-2.25-.375c-.71-.25-1.26-.58-1.65-.99l.435-.855c.38.38.885.69 1.515.93.63.23 1.28.345 1.95.345.94 0 1.645-.17 2.115-.51.47-.35.705-.8.705-1.35 0-.42-.13-.755-.39-1.005-.25-.25-.56-.44-.93-.57-.37-.14-.885-.29-1.545-.45-.79-.2-1.42-.39-1.89-.57a3.24 3.24 0 01-1.215-.855c-.33-.38-.495-.895-.495-1.545 0-.53.14-1.01.42-1.44.28-.44.71-.79 1.29-1.05.58-.26 1.3-.39 2.16-.39.6 0 1.185.085 1.755.255.58.16 1.08.385 1.5.675l-.375.885c-.44-.29-.91-.505-1.41-.645a5.1 5.1 0 00-1.47-.225c-.92 0-1.615.18-2.085.54-.46.35-.69.805-.69 1.365 0 .42.125.76.375 1.02.26.25.58.445.96.585.39.13.91.275 1.56.435.77.19 1.39.38 1.86.57.48.18.885.46 1.215.84.33.37.495.875.495 1.515 0 .53-.145 1.015-.435 1.455-.28.43-.715.775-1.305 1.035-.59.25-1.315.375-2.175.375zm11.029-8.04c.99 0 1.775.29 2.355.87.59.57.885 1.405.885 2.505V50h-1.065v-4.47c0-.82-.205-1.445-.615-1.875-.41-.43-.995-.645-1.755-.645-.85 0-1.525.255-2.025.765-.49.5-.735 1.195-.735 2.085V50h-1.065V38.87h1.065v4.62c.29-.46.69-.815 1.2-1.065s1.095-.375 1.755-.375zm10.286 8.025c-.76 0-1.445-.17-2.055-.51-.61-.35-1.09-.83-1.44-1.44-.35-.61-.525-1.3-.525-2.07 0-.77.175-1.46.525-2.07a3.72 3.72 0 011.44-1.425c.61-.34 1.295-.51 2.055-.51.76 0 1.445.17 2.055.51.61.34 1.085.815 1.425 1.425.35.61.525 1.3.525 2.07 0 .77-.175 1.46-.525 2.07a3.72 3.72 0 01-1.425 1.44c-.61.34-1.295.51-2.055.51zm0-.945c.56 0 1.06-.125 1.5-.375.45-.26.8-.625 1.05-1.095s.375-1.005.375-1.605c0-.6-.125-1.135-.375-1.605s-.6-.83-1.05-1.08c-.44-.26-.94-.39-1.5-.39s-1.065.13-1.515.39c-.44.25-.79.61-1.05 1.08-.25.47-.375 1.005-.375 1.605 0 .6.125 1.135.375 1.605.26.47.61.835 1.05 1.095.45.25.955.375 1.515.375zm11.144-7.08c.74 0 1.41.17 2.01.51.6.33 1.07.8 1.41 1.41.34.61.51 1.305.51 2.085 0 .79-.17 1.49-.51 2.1-.34.61-.81 1.085-1.41 1.425-.59.33-1.26.495-2.01.495-.64 0-1.22-.13-1.74-.39-.51-.27-.93-.66-1.26-1.17v4.395h-1.065v-10.8h1.02v1.56c.32-.52.74-.92 1.26-1.2.53-.28 1.125-.42 1.785-.42zm-.075 7.08c.55 0 1.05-.125 1.5-.375.45-.26.8-.625 1.05-1.095.26-.47.39-1.005.39-1.605 0-.6-.13-1.13-.39-1.59-.25-.47-.6-.835-1.05-1.095-.45-.26-.95-.39-1.5-.39-.56 0-1.065.13-1.515.39-.44.26-.79.625-1.05 1.095-.25.46-.375.99-.375 1.59 0 .6.125 1.135.375 1.605.26.47.61.835 1.05 1.095.45.25.955.375 1.515.375zm6.961.945c-.22 0-.41-.08-.57-.24a.824.824 0 01-.225-.585c0-.23.075-.42.225-.57.16-.16.35-.24.57-.24.22 0 .41.08.57.24.16.15.24.34.24.57 0 .23-.08.425-.24.585-.16.16-.35.24-.57.24z" fill="#A3A2A1"/><path d="M30.695 6.823C31.88 5.968 33.26 5.7 34.2 5.7h4.121c1.291 0 2.558.35 3.665 1.015l5.082 3.05a2.85 2.85 0 011.382 2.442v3.468a4.275 4.275 0 01-4.275 4.275H42.75v22.91c1.2.185 2.403.632 3.406 1.467 1.453 1.209 2.294 3.07 2.294 5.55a1.425 1.425 0 01-1.425 1.424H14.25a8.55 8.55 0 01-5.139-15.384 1.425 1.425 0 011.713 2.277A5.7 5.7 0 0014.25 48.45c.82 0 1.34-.2 1.681-.427.339-.234.609-.552.784-.924.23-.468.36-.978.385-1.499v-.128l.011-.314a26.65 26.65 0 01.741-4.89c.75-2.993 2.269-6.829 5.364-9.927C28.471 25.09 28.5 18.044 28.5 15.675V11.4c0-2.174.94-3.67 2.195-4.577zm.438 12.842c-.441 3.58-1.792 8.584-5.9 12.694-2.604 2.602-3.935 5.891-4.613 8.599a23.739 23.739 0 00-.662 4.329 10.8 10.8 0 00-.008.248v.16l-.011.19a6.68 6.68 0 01-.713 2.565H36.82c-.285-.912-.863-1.85-1.858-2.371a4.623 4.623 0 00-2.186-.479h-2.85a1.425 1.425 0 110-2.85h2.85c.502 0 .975.04 1.425.114v-7.239a1.425 1.425 0 112.85 0v8.402c1.653 1.191 2.414 2.964 2.702 4.423h5.7c-.214-.935-.642-1.536-1.12-1.932-.733-.613-1.796-.918-3.007-.918a1.425 1.425 0 01-1.425-1.425v-25.65a1.425 1.425 0 011.425-1.425h2.85a1.425 1.425 0 001.425-1.425v-3.468l-5.079-3.05a4.275 4.275 0 00-2.2-.607H34.2c-.485 0-1.243.157-1.838.587-.528.377-1.012 1.018-1.012 2.263v4.275c0 .248.085.65.302.95.162.227.447.475 1.123.475.675 0 .96-.25 1.123-.476.19-.28.294-.61.302-.949a1.425 1.425 0 112.85 0c0 .704-.2 1.727-.838 2.614-.693.96-1.833 1.661-3.437 1.661a4.617 4.617 0 01-1.642-.285z" fill="#DEAD6F"/></svg>