<svg width="16" height="17" fill="none" xmlns="http://www.w3.org/2000/svg"><path d="M2.285 2.695c1.547-1.547 3.41-2.32 5.59-2.32 2.18 0 4.031.773 5.555 2.32 1.547 1.524 2.32 3.375 2.32 5.555 0 2.18-.773 4.043-2.32 5.59-1.524 1.523-3.375 2.285-5.555 2.285a7.793 7.793 0 01-2.25-.316c.422-.75.691-1.313.809-1.688l.562-2.18c.352.657.984.985 1.899.985 1.265 0 2.285-.504 3.058-1.512.797-1.008 1.195-2.297 1.195-3.867 0-1.219-.468-2.274-1.406-3.164-.937-.914-2.133-1.371-3.586-1.371-1.734 0-3.105.515-4.113 1.547C3.035 5.566 2.531 6.69 2.531 7.934c0 1.57.54 2.578 1.617 3.023.211.094.352.023.422-.21 0-.048.012-.153.035-.317.047-.164.082-.27.106-.317.047-.14.012-.281-.106-.422-.351-.421-.527-.937-.527-1.546 0-1.032.352-1.91 1.055-2.637.726-.75 1.664-1.125 2.812-1.125 1.032 0 1.84.281 2.426.844.586.539.879 1.253.879 2.144 0 1.172-.234 2.168-.703 2.988-.469.797-1.067 1.196-1.793 1.196-.422 0-.762-.14-1.02-.422-.257-.305-.34-.668-.246-1.09.047-.234.13-.55.246-.95.141-.398.246-.75.317-1.054a2.7 2.7 0 00.14-.773c0-.329-.093-.61-.28-.844-.188-.234-.446-.352-.774-.352-.422 0-.785.2-1.09.598-.281.375-.422.855-.422 1.441a3.465 3.465 0 00.21 1.125l.036.141a446.135 446.135 0 00-1.02 4.29 5.636 5.636 0 00-.14 1.792 7.986 7.986 0 01-3.41-2.883C.434 11.285 0 9.844 0 8.25c0-2.18.762-4.031 2.285-5.555z" fill="#CACACA"/></svg>