<svg width="18" height="20" fill="none" xmlns="http://www.w3.org/2000/svg"><path d="M12.293 1.775C11.457.872 10.29.375 9 .375c-1.296 0-2.467.494-3.3 1.391-.841.907-1.251 2.14-1.155 3.471C4.736 7.864 6.735 10 9 10c2.266 0 4.261-2.136 4.455-4.762.097-1.319-.315-2.55-1.162-3.463zm4.27 17.85H1.438a1.332 1.332 0 01-1.04-.478 1.517 1.517 0 01-.309-1.251c.363-2.012 1.495-3.702 3.274-4.888 1.58-1.053 3.582-1.633 5.637-1.633 2.055 0 4.057.58 5.638 1.633 1.779 1.186 2.91 2.876 3.273 4.887.083.462-.03.918-.308 1.251a1.332 1.332 0 01-1.04.479z" fill="#41403E"/></svg>