<svg width="82" height="79" viewBox="0 0 82 79" fill="none" xmlns="http://www.w3.org/2000/svg">
<path d="M78.5 31.625H75.2305C74.4453 23.0894 70.4994 15.155 64.1668 9.37821C57.8341 3.6014 49.5717 0.398926 41 0.398926C32.4283 0.398926 24.1659 3.6014 17.8332 9.37821C11.5006 15.155 7.55474 23.0894 6.76953 31.625H3.5C2.6712 31.625 1.87634 31.9543 1.29029 32.5403C0.70424 33.1264 0.375 33.9212 0.375 34.75C0.38873 42.1817 2.43395 49.4683 6.28949 55.8217C10.145 62.175 15.6642 67.3534 22.25 70.7969V72.25C22.25 73.9076 22.9085 75.4973 24.0806 76.6694C25.2527 77.8415 26.8424 78.5 28.5 78.5H53.5C55.1576 78.5 56.7473 77.8415 57.9194 76.6694C59.0915 75.4973 59.75 73.9076 59.75 72.25V70.7969C66.3358 67.3534 71.855 62.175 75.7105 55.8217C79.566 49.4683 81.6113 42.1817 81.625 34.75C81.625 33.9212 81.2958 33.1264 80.7097 32.5403C80.1237 31.9543 79.3288 31.625 78.5 31.625ZM68.9453 31.625H48.8594C52.6481 25.941 58.38 21.8341 64.9805 20.0742C67.1386 23.5846 68.4926 27.5293 68.9453 31.625ZM58.7656 12.9649C59.4818 13.5508 60.168 14.1693 60.8242 14.8203C52.5053 17.7467 45.6309 23.761 41.625 31.6172H30.1016C32.0547 26.1423 35.6505 21.4039 40.3978 18.0494C45.145 14.6949 50.8122 12.8878 56.625 12.875C57.3398 12.875 58.0547 12.9102 58.7656 12.9649ZM41 6.62502C43.5077 6.62667 46.0039 6.96431 48.4219 7.62892C42.5329 9.08975 37.1331 12.0771 32.7667 16.2899C28.4003 20.5028 25.2215 25.7922 23.5508 31.625H13.0547C13.8299 24.7534 17.1067 18.4073 22.2606 13.7967C27.4144 9.18601 34.0848 6.63324 41 6.62502ZM55.3203 66C54.7752 66.2505 54.3137 66.6525 53.9909 67.1582C53.6681 67.6638 53.4977 68.2517 53.5 68.8516V72.25H28.5V68.8516C28.5023 68.2517 28.3319 67.6638 28.0091 67.1582C27.6863 66.6525 27.2248 66.2505 26.6797 66C21.1841 63.4711 16.4503 59.5411 12.9535 54.6045C9.45678 49.6679 7.32005 43.8984 6.75781 37.875H75.2305C74.6693 43.8972 72.5344 49.6659 69.0397 54.6024C65.5451 59.5389 60.8138 63.4695 55.3203 66Z" fill="#DEAD6F" fill-opacity="0.6"/>
</svg>
