<svg width="82" height="79" viewBox="0 0 94 82" fill="none" xmlns="http://www.w3.org/2000/svg">
<path d="M68.75 20.5624C68.75 21.4895 68.4751 22.3958 67.96 23.1666C67.4449 23.9375 66.7129 24.5383 65.8563 24.8931C64.9998 25.2479 64.0573 25.3407 63.148 25.1598C62.2387 24.979 61.4035 24.5325 60.7479 23.877C60.0924 23.2214 59.6459 22.3862 59.4651 21.4769C59.2842 20.5676 59.377 19.6251 59.7318 18.7686C60.0866 17.9121 60.6874 17.18 61.4583 16.6649C62.2291 16.1498 63.1354 15.8749 64.0625 15.8749C65.3057 15.8749 66.498 16.3688 67.3771 17.2478C68.2561 18.1269 68.75 19.3192 68.75 20.5624ZM48.875 44.7226C48.5603 44.4591 48.1968 44.2603 47.8052 44.1373C47.4137 44.0144 47.0017 43.9698 46.5929 44.0061C46.1841 44.0423 45.7865 44.1588 45.4227 44.3487C45.0589 44.5387 44.7361 44.7985 44.4727 45.1132L28.8477 63.8632C28.3172 64.5003 28.0616 65.3221 28.1371 66.1477C28.2125 66.9733 28.6129 67.7351 29.25 68.2655C29.8871 68.796 30.7089 69.0516 31.5345 68.9761C32.3601 68.9007 33.1219 68.5003 33.6523 67.8632L49.2773 49.1132C49.8044 48.4768 50.0579 47.6576 49.9825 46.8348C49.9071 46.012 49.5089 45.2526 48.875 44.7226ZM93.75 25.2499C93.7503 25.7645 93.6236 26.2713 93.381 26.7251C93.1384 27.1789 92.7875 27.5659 92.3594 27.8515L84.375 33.1718V40.8749C84.3636 51.6458 80.0799 61.9724 72.4637 69.5886C64.8475 77.2048 54.5209 81.4885 43.75 81.4999H3.125C2.53609 81.5003 1.95905 81.3342 1.46041 81.0209C0.961766 80.7076 0.561808 80.2597 0.306635 79.729C0.0514611 79.1982 -0.0485414 78.6061 0.0181532 78.021C0.0848478 77.4359 0.315525 76.8815 0.683597 76.4218L37.5 30.4023V23.6874C37.4947 18.0888 39.4937 12.6733 43.1352 8.42082C46.7767 4.16834 51.8202 1.35985 57.3529 0.503583C62.8856 -0.352687 68.542 0.799832 73.2987 3.75258C78.0553 6.70532 81.5978 11.2632 83.2852 16.6015L92.3594 22.6483C92.7875 22.934 93.1384 23.3209 93.381 23.7747C93.6236 24.2286 93.7503 24.7353 93.75 25.2499ZM84.9922 25.2499L78.8672 21.164C78.2283 20.739 77.7681 20.0939 77.5742 19.3515C76.5237 15.3022 74.0324 11.7751 70.5674 9.43125C67.1024 7.0874 62.9015 6.08774 58.7521 6.61965C54.6027 7.15156 50.7898 9.17851 48.028 12.3206C45.2662 15.4626 43.7452 19.5041 43.75 23.6874V31.4999C43.7506 32.2097 43.5095 32.8985 43.0664 33.453L9.625 75.2499H43.75C52.8636 75.2396 61.6011 71.6146 68.0454 65.1703C74.4897 58.726 78.1147 49.9886 78.125 40.8749V31.4999C78.1247 30.9853 78.2514 30.4786 78.494 30.0247C78.7366 29.5709 79.0875 29.184 79.5156 28.8983L84.9922 25.2499Z" fill="#DEAD6F" fill-opacity="0.6"/>
</svg>
