<svg width="82" height="80" viewBox="0 0 82 80" fill="none" xmlns="http://www.w3.org/2000/svg">
<path d="M59.3927 18.0616C59.3927 18.8698 59.144 19.6598 58.678 20.3318C58.212 21.0038 57.5497 21.5275 56.7748 21.8368C55.9999 22.1461 55.1472 22.227 54.3245 22.0693C53.5019 21.9117 52.7462 21.5225 52.1531 20.951C51.56 20.3796 51.1561 19.6515 50.9925 18.8588C50.8288 18.0662 50.9128 17.2446 51.2338 16.4979C51.5548 15.7512 52.0984 15.1131 52.7958 14.6641C53.4932 14.2151 54.3131 13.9754 55.1519 13.9754C56.2766 13.9754 57.3553 14.4059 58.1506 15.1722C58.9459 15.9386 59.3927 16.9779 59.3927 18.0616ZM73.483 45.6437C66.1463 54.6232 54.4521 59.5164 38.7043 60.2077L30.9294 77.7171C30.7117 78.2105 30.3478 78.631 29.8833 78.926C29.4187 79.221 28.8741 79.3773 28.3177 79.3755H28.1375C27.5549 79.3403 26.9979 79.1322 26.5429 78.7798C26.088 78.4274 25.7574 77.948 25.5965 77.4073L20.3626 59.7514L2.04906 54.6981C1.48634 54.5458 0.986431 54.2292 0.618146 53.7918C0.249861 53.3545 0.0313021 52.818 -0.00744967 52.256C-0.0462015 51.6941 0.0967587 51.1344 0.401755 50.6539C0.706751 50.1735 1.15879 49.7959 1.69566 49.5733L19.8713 42.0818C20.5781 26.9049 25.6707 15.6371 34.9936 8.57138C50.2643 -3.00627 72.0694 0.797328 76.2855 1.67587C77.3477 1.897 78.3213 2.40836 79.0897 3.14875C79.8581 3.88913 80.3888 4.82718 80.6183 5.85063C81.5513 9.90962 85.5024 30.9401 73.483 45.6641V45.6437ZM57.1097 50.9796C53.8414 49.7801 50.995 47.7087 48.9035 45.0078C46.812 42.3069 45.5617 39.0881 45.2989 35.7278C41.8121 35.475 38.4722 34.2709 35.6696 32.2562C32.8671 30.2415 30.7179 27.4995 29.4734 24.351C26.9995 29.7517 25.6707 36.3066 25.4799 43.9717C25.4667 44.4936 25.2981 45.0009 24.9943 45.4332C24.6904 45.8654 24.264 46.2044 23.7659 46.4098L11.2518 51.5687L23.4301 54.9296C23.8917 55.0569 24.3119 55.2953 24.6514 55.6224C24.9908 55.9494 25.2382 56.3544 25.3703 56.7991L28.8478 68.5334L34.2126 56.4756C34.4265 55.9941 34.78 55.5822 35.2306 55.2893C35.6813 54.9963 36.21 54.8348 36.7535 54.8241C44.6981 54.6436 51.5012 53.3564 57.1097 50.9796ZM75.1087 7.00499C71.3273 6.21498 51.7839 2.78596 38.5064 12.8551C36.8329 14.1259 35.3121 15.573 33.9722 17.1695C33.8366 18.9495 34.106 20.7366 34.7616 22.4059C35.4172 24.0752 36.4432 25.5864 37.7679 26.8339C39.0926 28.0815 40.6841 29.0353 42.4311 29.6286C44.1781 30.222 46.0385 30.4406 47.8823 30.2692C48.2968 30.2313 48.7148 30.2821 49.1066 30.4179C49.4984 30.5538 49.8542 30.7713 50.1486 31.0549C50.443 31.3386 50.6687 31.6814 50.8097 32.0589C50.9506 32.4364 51.0033 32.8392 50.964 33.2386C50.786 35.0158 51.0131 36.809 51.6293 38.4928C52.2455 40.1766 53.236 41.7104 54.5316 42.9869C55.8271 44.2634 57.3964 45.2519 59.1298 45.8831C60.8631 46.5143 62.7186 46.7731 64.5666 46.6414C66.2211 45.3527 67.7206 43.8896 69.0372 42.2793C79.4874 29.486 75.9286 10.6519 75.1087 7.00499Z" fill="#DEAD6F" fill-opacity="0.6"/>
</svg>
