<svg width="83" height="79" viewBox="0 0 83 79" fill="none" xmlns="http://www.w3.org/2000/svg">
<path d="M29 42.6875C29 43.6146 28.7251 44.5209 28.21 45.2918C27.6949 46.0626 26.9629 46.6634 26.1063 47.0182C25.2498 47.373 24.3073 47.4658 23.398 47.285C22.4887 47.1041 21.6535 46.6577 20.9979 46.0021C20.3424 45.3465 19.8959 44.5113 19.7151 43.602C19.5342 42.6927 19.627 41.7502 19.9818 40.8937C20.3366 40.0372 20.9374 39.3051 21.7083 38.79C22.4791 38.275 23.3854 38 24.3125 38C25.5557 38 26.748 38.4939 27.6271 39.373C28.5061 40.2521 29 41.4443 29 42.6875ZM58.6875 38C57.7604 38 56.8541 38.275 56.0833 38.79C55.3124 39.3051 54.7116 40.0372 54.3568 40.8937C54.002 41.7502 53.9092 42.6927 54.0901 43.602C54.2709 44.5113 54.7174 45.3465 55.3729 46.0021C56.0285 46.6577 56.8637 47.1041 57.773 47.285C58.6823 47.4658 59.6248 47.373 60.4813 47.0182C61.3379 46.6634 62.0699 46.0626 62.585 45.2918C63.1001 44.5209 63.375 43.6146 63.375 42.6875C63.375 41.4443 62.8811 40.2521 62.0021 39.373C61.123 38.4939 59.9307 38 58.6875 38ZM82.125 6.75004V41.125C82.125 61.8008 63.9023 78.625 41.5 78.625C19.0977 78.625 0.875 61.8008 0.875 41.125V6.75004C0.875573 5.51432 1.24244 4.30651 1.92924 3.27924C2.61603 2.25196 3.59194 1.45133 4.73362 0.978523C5.8753 0.505714 7.13152 0.381948 8.34352 0.622866C9.55552 0.863784 10.6689 1.45857 11.543 2.33207C11.5977 2.38675 11.6445 2.43754 11.6914 2.49222L18.4531 10.2657C25.367 5.93395 33.3608 3.6366 41.5195 3.6366C49.6783 3.6366 57.6721 5.93395 64.5859 10.2657L71.3086 2.49222C71.3555 2.43754 71.4023 2.38675 71.457 2.33207C72.3311 1.45857 73.4445 0.863784 74.6565 0.622866C75.8685 0.381948 77.1247 0.505714 78.2664 0.978523C79.4081 1.45133 80.384 2.25196 81.0708 3.27924C81.7576 4.30651 82.1244 5.51432 82.125 6.75004ZM75.875 6.75004L67.4531 16.4375C66.938 17.0335 66.2167 17.413 65.4337 17.4999C64.6507 17.5868 63.8638 17.3748 63.2305 16.9063C61.3241 15.4965 59.2782 14.2857 57.125 13.293V22.375C57.125 23.2038 56.7958 23.9987 56.2097 24.5847C55.6237 25.1708 54.8288 25.5 54 25.5C53.1712 25.5 52.3763 25.1708 51.7903 24.5847C51.2042 23.9987 50.875 23.2038 50.875 22.375V11.0664C48.8248 10.5391 46.7343 10.1837 44.625 10.0039V22.375C44.625 23.2038 44.2958 23.9987 43.7097 24.5847C43.1237 25.1708 42.3288 25.5 41.5 25.5C40.6712 25.5 39.8763 25.1708 39.2903 24.5847C38.7042 23.9987 38.375 23.2038 38.375 22.375V10.0039C36.2657 10.1837 34.1752 10.5391 32.125 11.0664V22.375C32.125 23.2038 31.7958 23.9987 31.2097 24.5847C30.6237 25.1708 29.8288 25.5 29 25.5C28.1712 25.5 27.3763 25.1708 26.7903 24.5847C26.2042 23.9987 25.875 23.2038 25.875 22.375V13.293C23.7218 14.2857 21.6759 15.4965 19.7695 16.9063C19.1376 17.3762 18.3515 17.5901 17.5686 17.5054C16.7857 17.4207 16.0636 17.0435 15.5469 16.4493L7.125 6.75004V41.125C7.125 57.3985 20.8789 70.8125 38.375 72.2461V64.293L33.0391 58.9571C32.749 58.6667 32.5189 58.3221 32.362 57.9428C32.2051 57.5636 32.1245 57.1571 32.1246 56.7467C32.1248 56.3363 32.2058 55.9299 32.3631 55.5508C32.5203 55.1717 32.7507 54.8272 33.041 54.5372C33.6274 53.9513 34.4225 53.6224 35.2514 53.6227C35.6618 53.6229 36.0682 53.7039 36.4473 53.8612C36.8264 54.0184 37.1709 54.2488 37.4609 54.5391L41.5 58.5782L45.5391 54.5391C45.8291 54.2488 46.1736 54.0184 46.5527 53.8612C46.9318 53.7039 47.3382 53.6229 47.7486 53.6227C48.159 53.6225 48.5655 53.7032 48.9447 53.8601C49.324 54.017 49.6686 54.2471 49.959 54.5372C50.2493 54.8272 50.4797 55.1717 50.6369 55.5508C50.7942 55.9299 50.8752 56.3363 50.8754 56.7467C50.8755 57.1571 50.7949 57.5636 50.638 57.9428C50.4811 58.3221 50.251 58.6667 49.9609 58.9571L44.625 64.293V72.2461C62.1211 70.8047 75.875 57.4024 75.875 41.125V6.75004Z" fill="#DEAD6F" fill-opacity="0.6"/>
</svg>
