<svg width="24" height="20" viewBox="0 0 24 20" fill="none" xmlns="http://www.w3.org/2000/svg">
<path d="M1.6875 0.562538C1.17187 0.562538 0.75 0.984413 0.75 1.50004C0.75 2.01566 1.17187 2.43754 1.6875 2.43754H3.76781L6.22875 12.2813C6.43687 13.1157 7.185 13.6875 8.04469 13.6875H18.7969C19.6425 13.6875 20.3606 13.1269 20.5838 12.3103L23.0156 3.37504H7.3125L7.78125 5.25004H20.5838L18.7969 11.8125H8.04469L5.58375 1.96879C5.48236 1.56502 5.24838 1.20696 4.91929 0.951985C4.5902 0.697009 4.18505 0.55987 3.76875 0.562538H1.6875ZM17.625 13.6875C16.0828 13.6875 14.8125 14.9578 14.8125 16.5C14.8125 18.0422 16.0828 19.3125 17.625 19.3125C19.1672 19.3125 20.4375 18.0422 20.4375 16.5C20.4375 14.9578 19.1672 13.6875 17.625 13.6875ZM9.1875 13.6875C7.64531 13.6875 6.375 14.9578 6.375 16.5C6.375 18.0422 7.64531 19.3125 9.1875 19.3125C10.7297 19.3125 12 18.0422 12 16.5C12 14.9578 10.7297 13.6875 9.1875 13.6875ZM9.1875 15.5625C9.71531 15.5625 10.125 15.9732 10.125 16.5C10.125 17.0278 9.71437 17.4375 9.1875 17.4375C8.65969 17.4375 8.25 17.0269 8.25 16.5C8.25 15.9722 8.66063 15.5625 9.1875 15.5625ZM17.625 15.5625C18.1528 15.5625 18.5625 15.9732 18.5625 16.5C18.5625 17.0278 18.1519 17.4375 17.625 17.4375C17.0972 17.4375 16.6875 17.0269 16.6875 16.5C16.6875 15.9722 17.0981 15.5625 17.625 15.5625Z" fill="#DEAD6F"/>
</svg>
