<svg width="23" height="23" viewBox="0 0 23 23" fill="none" xmlns="http://www.w3.org/2000/svg">
<path d="M12 0.6875L11.7066 0.950938L1.01344 11.7622L0.369373 12.4062L1.01344 13.0803L9.91969 21.9866L10.5937 22.6306L11.2387 21.9866L22.0481 11.2925L22.3125 11V0.6875H12ZM12.7912 2.5625H20.4375V10.2087L10.5937 19.9944L3.00562 12.4062L12.7912 2.5625ZM17.625 4.4375C17.1094 4.4375 16.6875 4.85938 16.6875 5.375C16.6875 5.89062 17.1094 6.3125 17.625 6.3125C18.1406 6.3125 18.5625 5.89062 18.5625 5.375C18.5625 4.85938 18.1406 4.4375 17.625 4.4375Z" fill="#DEAD6F"/>
</svg>
