<svg width="24" height="26" viewBox="0 0 24 26" fill="none" xmlns="http://www.w3.org/2000/svg">
<path d="M12 0.8125C11.4141 0.8125 10.8319 1.00938 10.3303 1.36938L8.77782 2.45312L6.98907 2.6875H6.96001L6.93095 2.71656C6.34429 2.84905 5.8072 3.14508 5.38193 3.57035C4.95665 3.99563 4.66062 4.53272 4.52813 5.11937L4.50001 5.14844V5.1775L4.26563 6.99437L3.18188 8.40062L3.15188 8.42969V8.45875C2.49657 9.50594 2.46751 10.8578 3.18188 11.8572L4.2947 13.4097L4.58813 15.0222L1.57032 19.6206L0.60376 21.0569H5.08595L6.1697 23.5759L6.84376 25.1875L7.81032 23.7222L10.7691 19.2691C11.5641 19.5953 12.4613 19.6253 13.2309 19.2691L16.1897 23.7222L17.1563 25.1875L17.8303 23.5759L18.9141 21.0569H23.3963L22.4297 19.6206L19.5 15.1684L19.7344 13.4106L20.8181 11.8581L20.8481 11.8291V11.8C21.5034 10.7528 21.5325 9.43 20.8181 8.43063L19.7344 6.87719L19.3828 5.11937H19.4119C19.4081 5.09687 19.3866 5.08188 19.3828 5.06031C19.2141 3.83406 18.2438 2.83844 17.01 2.6875H16.98L15.2222 2.45312L13.6697 1.36938C13.1848 1.01417 12.601 0.819464 12 0.8125ZM12 2.71656C12.2156 2.71656 12.4284 2.78219 12.5859 2.89281L14.2556 4.09375L14.4609 4.24L14.6953 4.27L16.7466 4.5625H16.7747C17.1966 4.60938 17.4891 4.90281 17.5369 5.32469V5.38281L17.9184 7.46312L17.9466 7.66844L18.0938 7.84375L19.2947 9.51344C19.5188 9.82469 19.5478 10.3525 19.2656 10.8025L17.9475 12.6484L17.9175 12.8828L17.625 14.9341V14.9622C17.6094 15.1087 17.5593 15.2494 17.4788 15.3728L17.4197 15.4028V15.4309C17.2804 15.5983 17.0805 15.7038 16.8638 15.7244H16.8047L14.6663 16.1059L14.4319 16.1341L14.2556 16.2812L12.5859 17.4822C12.2747 17.7062 11.7178 17.7353 11.2678 17.4531L9.74438 16.2812L9.56814 16.135L9.3047 16.105L7.25345 15.8125H7.22532C7.09276 15.8008 6.96496 15.7574 6.8527 15.6859C6.74044 15.6145 6.64702 15.517 6.58032 15.4019C6.51802 15.2938 6.47817 15.1742 6.46313 15.0503V14.9922L6.08251 12.8538L6.05251 12.6194L5.90626 12.4431L4.70532 10.7734C4.48126 10.4622 4.4522 9.90531 4.73439 9.45531L5.90626 7.93187L6.05251 7.75563L6.08157 7.49219L6.34595 5.52906C6.3497 5.515 6.37126 5.515 6.37501 5.5C6.43345 5.27432 6.5512 5.06838 6.71605 4.90354C6.88089 4.73869 7.08683 4.62095 7.31251 4.5625C7.32751 4.55875 7.32751 4.53719 7.34157 4.53344L9.3047 4.26906L9.53907 4.24094L9.74438 4.09375L11.4141 2.89281C11.5716 2.78312 11.7844 2.71656 12 2.71656ZM18.4744 16.9844L19.9106 19.1819H17.6531L17.4188 19.7678L16.7747 21.2612L14.7825 18.2144L15.2213 17.8928L17.0681 17.5703V17.5994C17.0897 17.5956 17.1038 17.5741 17.1263 17.5703C17.6197 17.4991 18.0859 17.2968 18.4744 16.9844ZM5.52563 17.0134C5.93272 17.3835 6.44413 17.6189 6.99001 17.6875H7.01907L8.80688 17.9219L9.21657 18.2444L7.22439 21.2612L6.58032 19.7678L6.34595 19.1819H4.09032L5.52563 17.0134Z" fill="#DEAD6F"/>
</svg>
